<svg width="849" height="208" viewBox="0 0 849 208" fill="none" xmlns="http://www.w3.org/2000/svg">
<rect y="78" width="849" height="11" rx="5.5" fill="#B2FF9E"/>
<rect x="23" y="183" width="694" height="11" rx="5.5" fill="#B2FF9E"/>
<path d="M46.84 84.72C42.4133 84.72 38.5467 84.2133 35.24 83.2C31.9333 82.1867 29.3733 80.7733 27.56 78.96C25.8 77.0933 24.92 74.9067 24.92 72.4C24.92 69.6267 25.8 67.52 27.56 66.08C29.32 64.5867 31.88 63.84 35.24 63.84C35.1333 64.9067 35.08 65.6533 35.08 66.08C35.08 69.3867 36.1467 71.8933 38.28 73.6C40.4667 75.3067 43.64 76.16 47.8 76.16C51.9067 76.16 55.16 75.3867 57.56 73.84C59.96 72.24 61.16 70.08 61.16 67.36C61.16 65.6533 60.28 64.2667 58.52 63.2C56.8133 62.1333 53.6133 61.04 48.92 59.92C42.6267 58.4267 38.0133 56.5067 35.08 54.16C32.2 51.8133 30.76 48.8267 30.76 45.2C30.76 41.5733 31.7467 38.4267 33.72 35.76C35.6933 33.04 38.4933 30.96 42.12 29.52C45.7467 28.0267 49.9867 27.28 54.84 27.28C58.68 27.28 62.0933 27.76 65.08 28.72C68.0667 29.68 70.3867 31.04 72.04 32.8C73.7467 34.5067 74.6 36.4533 74.6 38.64C74.6 41.1467 73.7733 43.0667 72.12 44.4C70.4667 45.7333 68.04 46.4267 64.84 46.48C64.8933 46.1067 64.92 45.6 64.92 44.96C64.92 41.76 64.04 39.44 62.28 38C60.52 36.56 57.7467 35.84 53.96 35.84C50.0667 35.84 47 36.56 44.76 38C42.5733 39.44 41.48 41.44 41.48 44C41.48 45.7067 42.28 47.0667 43.88 48.08C45.48 49.0933 48.36 50.08 52.52 51.04C59.24 52.5867 64.12 54.56 67.16 56.96C70.2533 59.36 71.8 62.4 71.8 66.08C71.8 69.8667 70.7867 73.1733 68.76 76C66.7333 78.7733 63.8267 80.9333 60.04 82.48C56.3067 83.9733 51.9067 84.72 46.84 84.72ZM82.1475 50.96C82.5742 48.4533 83.6942 46.56 85.5075 45.28C87.3208 43.9467 89.7742 43.28 92.8675 43.28L92.0675 48.08C91.3208 48.8267 90.5208 49.68 89.6675 50.64L90.1475 50.96C92.4408 48.2933 94.6275 46.3467 96.7075 45.12C98.8408 43.8933 101.081 43.28 103.428 43.28C105.454 43.28 107.134 43.8667 108.468 45.04C109.854 46.2133 110.788 47.8933 111.268 50.08C112.974 47.8933 114.974 46.2133 117.268 45.04C119.614 43.8667 122.148 43.28 124.868 43.28C127.961 43.28 130.414 44.24 132.228 46.16C134.041 48.08 134.948 50.6933 134.948 54C134.948 55.1733 134.841 56.2933 134.628 57.36L130.868 78.64C130.441 80.7733 129.374 82.32 127.668 83.28C125.961 84.24 123.401 84.72 119.988 84.72L124.628 58.16C124.734 57.68 124.788 57.04 124.788 56.24C124.788 53.2 123.321 51.68 120.387 51.68C118.308 51.68 116.521 52.4 115.028 53.84C113.588 55.28 112.654 57.2533 112.228 59.76L108.948 78.64C108.521 80.7733 107.454 82.32 105.748 83.28C104.094 84.24 101.561 84.72 98.1475 84.72L102.868 58.16C102.974 57.3067 103.028 56.6667 103.028 56.24C103.028 54.7467 102.654 53.6267 101.908 52.88C101.161 52.08 100.094 51.68 98.7075 51.68C96.5742 51.68 94.7608 52.4267 93.2675 53.92C91.8275 55.4133 90.8675 57.4933 90.3875 60.16L87.1075 78.64C86.6808 80.7733 85.6142 82.32 83.9075 83.28C82.2008 84.24 79.6408 84.72 76.2275 84.72L82.1475 50.96ZM151.928 84.72C148.141 84.72 145.048 83.7333 142.648 81.76C140.301 79.7333 139.128 77.12 139.128 73.92C139.128 70.8267 139.928 68.0533 141.528 65.6C143.128 63.1467 145.368 61.2267 148.247 59.84C151.128 58.4533 154.381 57.76 158.008 57.76C160.354 57.76 162.434 58.1333 164.248 58.88C166.061 59.6267 167.714 60.8 169.208 62.4L169.608 62C169.448 61.7867 168.754 61.0667 167.528 59.84L167.768 58.24C167.821 57.92 167.848 57.44 167.848 56.8C167.848 54.9333 167.208 53.52 165.928 52.56C164.648 51.6 162.781 51.12 160.328 51.12C157.874 51.12 155.608 51.6 153.528 52.56C151.501 53.4667 149.794 54.8 148.408 56.56C147.394 56.2933 146.568 55.7867 145.928 55.04C145.288 54.2933 144.968 53.4933 144.968 52.64C144.968 50.9333 145.741 49.36 147.288 47.92C148.888 46.48 151.021 45.36 153.688 44.56C156.408 43.7067 159.368 43.28 162.568 43.28C167.368 43.28 171.128 44.3467 173.848 46.48C176.568 48.6133 177.928 51.52 177.928 55.2C177.928 56.1067 177.848 57.04 177.688 58L174.168 78C173.741 80.3467 172.701 82.0533 171.048 83.12C169.394 84.1867 166.941 84.72 163.688 84.72L164.248 81.44C165.261 80.64 166.034 79.9733 166.568 79.44L166.248 79.04C164.061 81.0133 161.821 82.4533 159.528 83.36C157.288 84.2667 154.754 84.72 151.928 84.72ZM155.848 77.44C158.834 77.44 161.234 76.8 163.048 75.52C164.861 74.1867 165.768 72.4267 165.768 70.24C165.768 68.5867 165.074 67.3067 163.688 66.4C162.354 65.4933 160.488 65.04 158.088 65.04C155.368 65.04 153.154 65.7333 151.448 67.12C149.794 68.5067 148.968 70.32 148.968 72.56C148.968 75.8133 151.261 77.44 155.848 77.44ZM208.409 51.92C205.262 51.92 202.542 52.7467 200.249 54.4C197.955 56.0533 196.595 58.16 196.169 60.72L193.049 78.64C192.622 80.7733 191.529 82.32 189.769 83.28C188.062 84.24 185.475 84.72 182.009 84.72L187.929 50.96C188.355 48.4533 189.475 46.56 191.289 45.28C193.155 43.9467 195.662 43.28 198.809 43.28L198.009 48C196.622 49.4933 195.822 50.3733 195.609 50.64L196.009 50.96C200.435 45.84 205.102 43.28 210.009 43.28C211.875 43.28 213.315 43.7333 214.329 44.64C215.395 45.4933 215.929 46.6933 215.929 48.24C215.929 49.0933 215.769 49.9467 215.449 50.8C215.129 51.6533 214.702 52.4267 214.169 53.12C212.889 52.32 210.969 51.92 208.409 51.92ZM233.469 84.72C230.055 84.72 227.415 83.84 225.549 82.08C223.735 80.2667 222.829 77.76 222.829 74.56C222.829 73.9733 222.935 72.88 223.149 71.28L226.589 51.44H218.429C218.802 49.0933 219.549 47.28 220.669 46C221.842 44.6667 223.282 44 224.989 44H228.109L229.229 37.36C229.602 35.2267 230.642 33.68 232.349 32.72C234.109 31.76 236.669 31.28 240.029 31.28L237.789 44H248.429C248.002 46.6133 247.149 48.5067 245.869 49.68C244.642 50.8533 242.909 51.44 240.669 51.44H236.589L233.149 70.88C233.042 71.84 232.989 72.4533 232.989 72.72C232.989 73.8933 233.309 74.7467 233.949 75.28C234.589 75.8133 235.629 76.08 237.069 76.08C238.882 76.08 240.882 75.5733 243.069 74.56C243.389 74.88 243.629 75.3067 243.789 75.84C244.002 76.3733 244.109 76.9333 244.109 77.52C244.109 79.5467 243.069 81.2533 240.989 82.64C238.962 84.0267 236.455 84.72 233.469 84.72ZM264.678 84.72C262.171 84.72 260.118 84.2133 258.518 83.2C256.971 82.1867 256.118 80.7733 255.958 78.96L252.918 44.16C253.344 43.9467 254.011 43.76 254.918 43.6C255.824 43.3867 256.678 43.28 257.478 43.28C259.024 43.28 260.304 43.6533 261.318 44.4C262.331 45.0933 262.864 46.0267 262.918 47.2L263.718 68.72L261.958 73.12L262.438 73.28L274.358 46.56C274.784 45.5467 275.478 44.7467 276.438 44.16C277.398 43.5733 278.491 43.28 279.718 43.28C280.944 43.28 281.958 43.5733 282.758 44.16C283.558 44.7467 283.984 45.5467 284.038 46.56L285.798 69.28L283.798 73.92L284.278 74.08L295.238 47.2C295.664 46.0267 296.491 45.0933 297.718 44.4C298.944 43.6533 300.358 43.28 301.958 43.28C302.811 43.28 303.638 43.36 304.438 43.52C305.291 43.68 305.904 43.8933 306.278 44.16L290.918 78.96C290.118 80.72 288.731 82.1333 286.758 83.2C284.838 84.2133 282.624 84.72 280.118 84.72L277.638 52.56L277.158 52.72L277.478 56.16L264.678 84.72ZM316.459 84.72C312.672 84.72 309.579 83.7333 307.179 81.76C304.832 79.7333 303.659 77.12 303.659 73.92C303.659 70.8267 304.459 68.0533 306.059 65.6C307.659 63.1467 309.899 61.2267 312.779 59.84C315.659 58.4533 318.912 57.76 322.539 57.76C324.885 57.76 326.965 58.1333 328.779 58.88C330.592 59.6267 332.245 60.8 333.739 62.4L334.139 62C333.979 61.7867 333.285 61.0667 332.059 59.84L332.299 58.24C332.352 57.92 332.379 57.44 332.379 56.8C332.379 54.9333 331.739 53.52 330.459 52.56C329.179 51.6 327.312 51.12 324.859 51.12C322.405 51.12 320.139 51.6 318.059 52.56C316.032 53.4667 314.325 54.8 312.939 56.56C311.925 56.2933 311.099 55.7867 310.459 55.04C309.819 54.2933 309.499 53.4933 309.499 52.64C309.499 50.9333 310.272 49.36 311.819 47.92C313.419 46.48 315.552 45.36 318.219 44.56C320.939 43.7067 323.899 43.28 327.099 43.28C331.899 43.28 335.659 44.3467 338.379 46.48C341.099 48.6133 342.459 51.52 342.459 55.2C342.459 56.1067 342.379 57.04 342.219 58L338.699 78C338.272 80.3467 337.232 82.0533 335.579 83.12C333.925 84.1867 331.472 84.72 328.219 84.72L328.779 81.44C329.792 80.64 330.565 79.9733 331.099 79.44L330.779 79.04C328.592 81.0133 326.352 82.4533 324.059 83.36C321.819 84.2667 319.285 84.72 316.459 84.72ZM320.379 77.44C323.365 77.44 325.765 76.8 327.579 75.52C329.392 74.1867 330.299 72.4267 330.299 70.24C330.299 68.5867 329.605 67.3067 328.219 66.4C326.885 65.4933 325.019 65.04 322.619 65.04C319.899 65.04 317.685 65.7333 315.979 67.12C314.325 68.5067 313.499 70.32 313.499 72.56C313.499 75.8133 315.792 77.44 320.379 77.44ZM361.906 84.72C358.493 84.72 355.853 83.84 353.986 82.08C352.173 80.2667 351.266 77.76 351.266 74.56C351.266 73.9733 351.373 72.88 351.586 71.28L355.026 51.44H346.866C347.24 49.0933 347.986 47.28 349.106 46C350.28 44.6667 351.72 44 353.426 44H356.546L357.666 37.36C358.04 35.2267 359.08 33.68 360.786 32.72C362.546 31.76 365.106 31.28 368.466 31.28L366.226 44H376.866C376.44 46.6133 375.586 48.5067 374.306 49.68C373.08 50.8533 371.346 51.44 369.106 51.44H365.026L361.586 70.88C361.48 71.84 361.426 72.4533 361.426 72.72C361.426 73.8933 361.746 74.7467 362.386 75.28C363.026 75.8133 364.066 76.08 365.506 76.08C367.32 76.08 369.32 75.5733 371.506 74.56C371.826 74.88 372.066 75.3067 372.226 75.84C372.44 76.3733 372.546 76.9333 372.546 77.52C372.546 79.5467 371.506 81.2533 369.426 82.64C367.4 84.0267 364.893 84.72 361.906 84.72ZM394.053 84.72C389.413 84.72 385.679 83.6 382.853 81.36C380.079 79.12 378.693 76.16 378.693 72.48C378.693 71.68 378.773 70.8533 378.933 70L380.853 58.8C381.386 55.76 382.586 53.0667 384.453 50.72C386.373 48.3733 388.773 46.56 391.653 45.28C394.586 43.9467 397.759 43.28 401.173 43.28C405.493 43.28 409.013 44.1867 411.733 46C414.453 47.76 415.812 50.08 415.812 52.96C415.812 54.9333 414.959 56.5333 413.253 57.76C411.546 58.9333 409.306 59.52 406.533 59.52C406.639 58.7733 406.693 58.24 406.693 57.92C406.693 56.0533 406.079 54.5867 404.853 53.52C403.679 52.4533 402.079 51.92 400.053 51.92C397.706 51.92 395.653 52.6133 393.893 54C392.186 55.3333 391.146 57.0667 390.773 59.2L389.013 69.28C388.959 69.5467 388.933 69.92 388.933 70.4C388.933 72.1067 389.546 73.4933 390.773 74.56C392.053 75.5733 393.733 76.08 395.812 76.08C398.159 76.08 400.186 75.3867 401.893 74C403.599 72.56 404.666 70.7467 405.093 68.56C407.279 68.56 409.066 68.96 410.453 69.76C411.839 70.56 412.533 71.6267 412.533 72.96C412.533 75.2533 411.733 77.3067 410.133 79.12C408.586 80.88 406.399 82.2667 403.573 83.28C400.799 84.24 397.626 84.72 394.053 84.72ZM426.979 34.96C427.459 32.5067 428.685 30.6133 430.659 29.28C432.632 27.9467 435.192 27.28 438.339 27.28L434.659 48.08C433.912 48.8267 433.112 49.68 432.259 50.64L432.739 50.96C437.379 45.84 442.499 43.28 448.099 43.28C451.512 43.28 454.285 44.3733 456.419 46.56C458.605 48.6933 459.699 51.44 459.699 54.8C459.699 55.6 459.619 56.4533 459.459 57.36L455.699 78.64C455.272 80.72 454.179 82.2667 452.419 83.28C450.659 84.24 448.072 84.72 444.659 84.72L449.219 58.8C449.325 57.9467 449.379 57.36 449.379 57.04C449.379 55.3867 448.845 54.1333 447.779 53.28C446.765 52.3733 445.272 51.92 443.299 51.92C440.632 51.92 438.259 52.7733 436.179 54.48C434.099 56.1333 432.845 58.2133 432.419 60.72L429.299 78.64C428.925 80.7733 427.859 82.32 426.099 83.28C424.339 84.24 421.725 84.72 418.259 84.72L426.979 34.96ZM498.446 84.72C495.939 84.72 493.699 84.2133 491.726 83.2C489.806 82.1333 488.286 80.6933 487.166 78.88C486.099 77.0667 485.566 75.04 485.566 72.8C485.566 72 485.646 71.1733 485.806 70.32L488.046 57.68C488.792 53.36 490.872 49.8933 494.286 47.28C497.752 44.6133 501.912 43.28 506.766 43.28C508.739 43.28 510.686 43.7067 512.606 44.56C514.579 45.36 516.179 46.4533 517.406 47.84L517.726 47.44C517.512 47.12 517.032 46.5867 516.286 45.84L518.366 34C518.792 31.8133 519.966 30.16 521.886 29.04C523.859 27.8667 526.472 27.28 529.726 27.28L520.766 77.84C520.339 79.9733 519.219 81.6533 517.406 82.88C515.592 84.1067 513.246 84.72 510.366 84.72L511.086 80.32C511.992 79.4133 512.632 78.72 513.006 78.24L512.686 77.92C510.499 80.32 508.286 82.0533 506.046 83.12C503.806 84.1867 501.272 84.72 498.446 84.72ZM503.006 76.08C505.352 76.08 507.379 75.52 509.086 74.4C510.846 73.2267 511.886 71.76 512.206 70L514.286 57.92C514.339 57.7067 514.366 57.4133 514.366 57.04C514.366 55.5467 513.699 54.32 512.366 53.36C511.032 52.4 509.299 51.92 507.166 51.92C504.552 51.92 502.446 52.48 500.846 53.6C499.299 54.6667 498.339 56.2133 497.966 58.24L495.886 69.6C495.779 70.24 495.726 70.6933 495.726 70.96C495.726 74.3733 498.152 76.08 503.006 76.08ZM546.48 84.72C543.493 84.72 540.827 84.16 538.48 83.04C536.133 81.92 534.293 80.4 532.96 78.48C531.627 76.5067 530.96 74.32 530.96 71.92C530.96 70.96 531.013 70.24 531.12 69.76L533.04 59.12C533.573 56.0267 534.8 53.28 536.72 50.88C538.693 48.48 541.147 46.6133 544.08 45.28C547.067 43.9467 550.32 43.28 553.84 43.28C556.773 43.28 559.36 43.8133 561.6 44.88C563.84 45.9467 565.573 47.44 566.8 49.36C568.027 51.28 568.64 53.4667 568.64 55.92C568.64 56.7733 568.56 57.68 568.4 58.64L567.6 63.12C567.333 64.3467 566.693 65.36 565.68 66.16C564.72 66.9067 563.573 67.28 562.24 67.28H541.28L540.96 69.04C540.853 69.7867 540.8 70.32 540.8 70.64C540.8 72.6133 541.413 74.1333 542.64 75.2C543.867 76.2667 545.627 76.8 547.92 76.8C550.427 76.8 552.48 76.24 554.08 75.12C555.68 74 556.64 72.4533 556.96 70.48C557.44 70.4267 558.08 70.4 558.88 70.4C560.693 70.4 562.08 70.7467 563.04 71.44C564.053 72.08 564.56 73.04 564.56 74.32C564.56 76.1333 563.733 77.84 562.08 79.44C560.427 81.04 558.213 82.32 555.44 83.28C552.667 84.24 549.68 84.72 546.48 84.72ZM559.04 60.16L559.36 58.64C559.467 58.2133 559.52 57.6 559.52 56.8C559.52 54.9867 558.907 53.6 557.68 52.64C556.453 51.6267 554.693 51.12 552.4 51.12C549.947 51.12 547.84 51.8133 546.08 53.2C544.32 54.5333 543.227 56.3467 542.8 58.64L542.48 60.16H559.04ZM614.965 84.72C610.538 84.72 606.672 84.2133 603.365 83.2C600.058 82.1867 597.498 80.7733 595.685 78.96C593.925 77.0933 593.045 74.9067 593.045 72.4C593.045 69.6267 593.925 67.52 595.685 66.08C597.445 64.5867 600.005 63.84 603.365 63.84C603.258 64.9067 603.205 65.6533 603.205 66.08C603.205 69.3867 604.272 71.8933 606.405 73.6C608.592 75.3067 611.765 76.16 615.925 76.16C620.032 76.16 623.285 75.3867 625.685 73.84C628.085 72.24 629.285 70.08 629.285 67.36C629.285 65.6533 628.405 64.2667 626.645 63.2C624.938 62.1333 621.738 61.04 617.045 59.92C610.752 58.4267 606.138 56.5067 603.205 54.16C600.325 51.8133 598.885 48.8267 598.885 45.2C598.885 41.5733 599.872 38.4267 601.845 35.76C603.818 33.04 606.618 30.96 610.245 29.52C613.872 28.0267 618.112 27.28 622.965 27.28C626.805 27.28 630.218 27.76 633.205 28.72C636.192 29.68 638.512 31.04 640.165 32.8C641.872 34.5067 642.725 36.4533 642.725 38.64C642.725 41.1467 641.898 43.0667 640.245 44.4C638.592 45.7333 636.165 46.4267 632.965 46.48C633.018 46.1067 633.045 45.6 633.045 44.96C633.045 41.76 632.165 39.44 630.405 38C628.645 36.56 625.872 35.84 622.085 35.84C618.192 35.84 615.125 36.56 612.885 38C610.698 39.44 609.605 41.44 609.605 44C609.605 45.7067 610.405 47.0667 612.005 48.08C613.605 49.0933 616.485 50.08 620.645 51.04C627.365 52.5867 632.245 54.56 635.285 56.96C638.378 59.36 639.925 62.4 639.925 66.08C639.925 69.8667 638.912 73.1733 636.885 76C634.858 78.7733 631.952 80.9333 628.165 82.48C624.432 83.9733 620.032 84.72 614.965 84.72ZM657.553 84.72C653.766 84.72 650.673 83.7333 648.273 81.76C645.926 79.7333 644.753 77.12 644.753 73.92C644.753 70.8267 645.553 68.0533 647.153 65.6C648.753 63.1467 650.993 61.2267 653.872 59.84C656.753 58.4533 660.006 57.76 663.633 57.76C665.979 57.76 668.059 58.1333 669.873 58.88C671.686 59.6267 673.339 60.8 674.833 62.4L675.233 62C675.073 61.7867 674.379 61.0667 673.153 59.84L673.393 58.24C673.446 57.92 673.473 57.44 673.473 56.8C673.473 54.9333 672.833 53.52 671.553 52.56C670.273 51.6 668.406 51.12 665.953 51.12C663.499 51.12 661.233 51.6 659.153 52.56C657.126 53.4667 655.419 54.8 654.033 56.56C653.019 56.2933 652.193 55.7867 651.553 55.04C650.913 54.2933 650.593 53.4933 650.593 52.64C650.593 50.9333 651.366 49.36 652.913 47.92C654.513 46.48 656.646 45.36 659.313 44.56C662.033 43.7067 664.993 43.28 668.193 43.28C672.993 43.28 676.753 44.3467 679.473 46.48C682.193 48.6133 683.553 51.52 683.553 55.2C683.553 56.1067 683.473 57.04 683.312 58L679.793 78C679.366 80.3467 678.326 82.0533 676.673 83.12C675.019 84.1867 672.566 84.72 669.313 84.72L669.873 81.44C670.886 80.64 671.659 79.9733 672.193 79.44L671.873 79.04C669.686 81.0133 667.446 82.4533 665.153 83.36C662.913 84.2667 660.379 84.72 657.553 84.72ZM661.473 77.44C664.459 77.44 666.859 76.8 668.673 75.52C670.486 74.1867 671.393 72.4267 671.393 70.24C671.393 68.5867 670.699 67.3067 669.313 66.4C667.979 65.4933 666.113 65.04 663.713 65.04C660.993 65.04 658.779 65.7333 657.073 67.12C655.419 68.5067 654.593 70.32 654.593 72.56C654.593 75.8133 656.886 77.44 661.473 77.44ZM724.434 76.96C723.954 79.52 722.78 81.4667 720.914 82.8C719.1 84.08 716.62 84.72 713.474 84.72L714.354 79.92C715.314 79.0667 716.114 78.1867 716.754 77.28L716.274 76.96C714.14 79.4667 711.794 81.3867 709.234 82.72C706.674 84.0533 704.007 84.72 701.234 84.72C697.66 84.72 694.754 83.6267 692.514 81.44C690.327 79.2533 689.234 76.4 689.234 72.88C689.234 71.92 689.314 70.96 689.474 70L693.074 49.36C693.447 47.2267 694.514 45.68 696.274 44.72C698.034 43.76 700.674 43.28 704.194 43.28L699.554 69.28C699.394 69.9733 699.314 70.64 699.314 71.28C699.314 72.9333 699.847 74.16 700.914 74.96C701.98 75.7067 703.607 76.08 705.794 76.08C708.407 76.08 710.647 75.28 712.514 73.68C714.434 72.0267 715.634 69.8933 716.114 67.28L719.234 49.36C719.66 47.2267 720.727 45.68 722.434 44.72C724.194 43.76 726.834 43.28 730.354 43.28L724.434 76.96ZM715.954 28.64C716.7 27.4133 717.687 26.5333 718.914 26C720.14 25.4133 721.66 25.12 723.474 25.12H730.354L718.834 37.76C718.087 38.6133 717.314 39.2 716.514 39.52C715.767 39.7867 714.62 39.92 713.074 39.92C712.594 39.92 711.234 39.8667 708.994 39.76L715.954 28.64ZM747.118 84.72C744.611 84.72 742.371 84.2133 740.398 83.2C738.478 82.1333 736.958 80.6933 735.838 78.88C734.771 77.0667 734.238 75.04 734.238 72.8C734.238 72 734.318 71.1733 734.478 70.32L736.717 57.68C737.464 53.36 739.544 49.8933 742.958 47.28C746.424 44.6133 750.584 43.28 755.438 43.28C757.411 43.28 759.358 43.7067 761.278 44.56C763.251 45.36 764.851 46.4533 766.078 47.84L766.398 47.44C766.184 47.12 765.704 46.5867 764.958 45.84L767.038 34C767.464 31.8133 768.638 30.16 770.558 29.04C772.531 27.8667 775.144 27.28 778.398 27.28L769.438 77.84C769.011 79.9733 767.891 81.6533 766.078 82.88C764.264 84.1067 761.918 84.72 759.038 84.72L759.758 80.32C760.664 79.4133 761.304 78.72 761.678 78.24L761.358 77.92C759.171 80.32 756.958 82.0533 754.718 83.12C752.478 84.1867 749.944 84.72 747.118 84.72ZM751.678 76.08C754.024 76.08 756.051 75.52 757.758 74.4C759.518 73.2267 760.558 71.76 760.878 70L762.958 57.92C763.011 57.7067 763.038 57.4133 763.038 57.04C763.038 55.5467 762.371 54.32 761.038 53.36C759.704 52.4 757.971 51.92 755.838 51.92C753.224 51.92 751.118 52.48 749.518 53.6C747.971 54.6667 747.011 56.2133 746.638 58.24L744.558 69.6C744.451 70.24 744.398 70.6933 744.398 70.96C744.398 74.3733 746.824 76.08 751.678 76.08ZM795.152 84.72C792.165 84.72 789.499 84.16 787.152 83.04C784.805 81.92 782.965 80.4 781.632 78.48C780.299 76.5067 779.632 74.32 779.632 71.92C779.632 70.96 779.685 70.24 779.792 69.76L781.712 59.12C782.245 56.0267 783.472 53.28 785.392 50.88C787.365 48.48 789.819 46.6133 792.752 45.28C795.739 43.9467 798.992 43.28 802.512 43.28C805.445 43.28 808.032 43.8133 810.272 44.88C812.512 45.9467 814.245 47.44 815.472 49.36C816.699 51.28 817.312 53.4667 817.312 55.92C817.312 56.7733 817.232 57.68 817.072 58.64L816.272 63.12C816.005 64.3467 815.365 65.36 814.352 66.16C813.392 66.9067 812.245 67.28 810.912 67.28H789.952L789.632 69.04C789.525 69.7867 789.472 70.32 789.472 70.64C789.472 72.6133 790.085 74.1333 791.312 75.2C792.539 76.2667 794.299 76.8 796.592 76.8C799.099 76.8 801.152 76.24 802.752 75.12C804.352 74 805.312 72.4533 805.632 70.48C806.112 70.4267 806.752 70.4 807.552 70.4C809.365 70.4 810.752 70.7467 811.712 71.44C812.725 72.08 813.232 73.04 813.232 74.32C813.232 76.1333 812.405 77.84 810.752 79.44C809.099 81.04 806.885 82.32 804.112 83.28C801.339 84.24 798.352 84.72 795.152 84.72ZM807.712 60.16L808.032 58.64C808.139 58.2133 808.192 57.6 808.192 56.8C808.192 54.9867 807.579 53.6 806.352 52.64C805.125 51.6267 803.365 51.12 801.072 51.12C798.619 51.12 796.512 51.8133 794.752 53.2C792.992 54.5333 791.899 56.3467 791.472 58.64L791.152 60.16H807.712ZM30.12 154.16C30.4933 152.027 31.6133 150.347 33.48 149.12C35.3467 147.893 37.6933 147.28 40.52 147.28L39.72 151.6C38.9733 152.293 38.3333 153.013 37.8 153.76L38.12 154.08C40.3067 151.733 42.5467 150.027 44.84 148.96C47.1867 147.84 49.7733 147.28 52.6 147.28C56.44 147.28 59.5067 148.347 61.8 150.48C64.1467 152.613 65.32 155.413 65.32 158.88C65.32 159.787 65.24 160.72 65.08 161.68L62.84 174.32C62.0933 178.853 60.04 182.4 56.68 184.96C53.3733 187.467 49.16 188.72 44.04 188.72C42.0133 188.72 40.0133 188.293 38.04 187.44C36.12 186.587 34.6 185.467 33.48 184.08L33.08 184.48C33.4 185.067 33.88 185.627 34.52 186.16L32.44 198C32.0667 200.187 30.92 201.84 29 202.96C27.1333 204.133 24.52 204.72 21.16 204.72L30.12 154.16ZM43.64 180.08C46.2533 180.08 48.3867 179.52 50.04 178.4C51.6933 177.28 52.7067 175.707 53.08 173.68L55.08 162.32C55.1333 162 55.16 161.573 55.16 161.04C55.16 159.387 54.5467 158.133 53.32 157.28C52.0933 156.373 50.3067 155.92 47.96 155.92C45.6133 155.92 43.5333 156.507 41.72 157.68C39.96 158.8 38.9467 160.213 38.68 161.92L36.52 174.08C36.4667 174.293 36.44 174.587 36.44 174.96C36.44 176.453 37.1067 177.68 38.44 178.64C39.7733 179.6 41.5067 180.08 43.64 180.08ZM81.5369 188.72C77.7502 188.72 74.6569 187.733 72.2569 185.76C69.9102 183.733 68.7369 181.12 68.7369 177.92C68.7369 174.827 69.5369 172.053 71.1369 169.6C72.7369 167.147 74.9769 165.227 77.8569 163.84C80.7369 162.453 83.9902 161.76 87.6169 161.76C89.9635 161.76 92.0435 162.133 93.8569 162.88C95.6702 163.627 97.3235 164.8 98.8169 166.4L99.2169 166C99.0569 165.787 98.3635 165.067 97.1369 163.84L97.3769 162.24C97.4302 161.92 97.4569 161.44 97.4569 160.8C97.4569 158.933 96.8169 157.52 95.5369 156.56C94.2569 155.6 92.3902 155.12 89.9369 155.12C87.4835 155.12 85.2169 155.6 83.1369 156.56C81.1102 157.467 79.4035 158.8 78.0169 160.56C77.0035 160.293 76.1769 159.787 75.5369 159.04C74.8969 158.293 74.5769 157.493 74.5769 156.64C74.5769 154.933 75.3502 153.36 76.8969 151.92C78.4969 150.48 80.6302 149.36 83.2969 148.56C86.0169 147.707 88.9769 147.28 92.1769 147.28C96.9769 147.28 100.737 148.347 103.457 150.48C106.177 152.613 107.537 155.52 107.537 159.2C107.537 160.107 107.457 161.04 107.297 162L103.777 182C103.35 184.347 102.31 186.053 100.657 187.12C99.0035 188.187 96.5502 188.72 93.2969 188.72L93.8569 185.44C94.8702 184.64 95.6435 183.973 96.1769 183.44L95.8569 183.04C93.6702 185.013 91.4302 186.453 89.1369 187.36C86.8969 188.267 84.3635 188.72 81.5369 188.72ZM85.4569 181.44C88.4435 181.44 90.8435 180.8 92.6569 179.52C94.4702 178.187 95.3769 176.427 95.3769 174.24C95.3769 172.587 94.6835 171.307 93.2969 170.4C91.9635 169.493 90.0969 169.04 87.6969 169.04C84.9769 169.04 82.7635 169.733 81.0569 171.12C79.4035 172.507 78.5769 174.32 78.5769 176.56C78.5769 179.813 80.8702 181.44 85.4569 181.44ZM138.018 155.92C134.871 155.92 132.151 156.747 129.858 158.4C127.565 160.053 126.205 162.16 125.778 164.72L122.658 182.64C122.231 184.773 121.138 186.32 119.378 187.28C117.671 188.24 115.085 188.72 111.618 188.72L117.538 154.96C117.965 152.453 119.085 150.56 120.898 149.28C122.765 147.947 125.271 147.28 128.418 147.28L127.618 152C126.231 153.493 125.431 154.373 125.218 154.64L125.618 154.96C130.045 149.84 134.711 147.28 139.618 147.28C141.485 147.28 142.925 147.733 143.938 148.64C145.005 149.493 145.538 150.693 145.538 152.24C145.538 153.093 145.378 153.947 145.058 154.8C144.738 155.653 144.311 156.427 143.778 157.12C142.498 156.32 140.578 155.92 138.018 155.92ZM155.756 188.72C151.969 188.72 148.876 187.733 146.476 185.76C144.129 183.733 142.956 181.12 142.956 177.92C142.956 174.827 143.756 172.053 145.356 169.6C146.956 167.147 149.196 165.227 152.076 163.84C154.956 162.453 158.209 161.76 161.836 161.76C164.182 161.76 166.262 162.133 168.076 162.88C169.889 163.627 171.542 164.8 173.036 166.4L173.436 166C173.276 165.787 172.582 165.067 171.356 163.84L171.596 162.24C171.649 161.92 171.676 161.44 171.676 160.8C171.676 158.933 171.036 157.52 169.756 156.56C168.476 155.6 166.609 155.12 164.156 155.12C161.702 155.12 159.436 155.6 157.356 156.56C155.329 157.467 153.622 158.8 152.236 160.56C151.222 160.293 150.396 159.787 149.756 159.04C149.116 158.293 148.796 157.493 148.796 156.64C148.796 154.933 149.569 153.36 151.116 151.92C152.716 150.48 154.849 149.36 157.516 148.56C160.236 147.707 163.196 147.28 166.396 147.28C171.196 147.28 174.956 148.347 177.676 150.48C180.396 152.613 181.756 155.52 181.756 159.2C181.756 160.107 181.676 161.04 181.516 162L177.996 182C177.569 184.347 176.529 186.053 174.876 187.12C173.222 188.187 170.769 188.72 167.516 188.72L168.076 185.44C169.089 184.64 169.862 183.973 170.396 183.44L170.076 183.04C167.889 185.013 165.649 186.453 163.356 187.36C161.116 188.267 158.582 188.72 155.756 188.72ZM159.676 181.44C162.662 181.44 165.062 180.8 166.876 179.52C168.689 178.187 169.596 176.427 169.596 174.24C169.596 172.587 168.902 171.307 167.516 170.4C166.182 169.493 164.316 169.04 161.916 169.04C159.196 169.04 156.982 169.733 155.276 171.12C153.622 172.507 152.796 174.32 152.796 176.56C152.796 179.813 155.089 181.44 159.676 181.44ZM215.582 136.88C215.795 135.493 216.489 134.347 217.662 133.44C218.889 132.48 220.275 132 221.822 132H243.102C248.062 132 251.875 133.147 254.542 135.44C257.262 137.733 258.622 141.013 258.622 145.28C258.622 149.387 257.715 152.907 255.902 155.84C254.089 158.773 251.475 160.987 248.062 162.48V162.72C251.582 164.48 253.342 167.387 253.342 171.44C253.342 172.027 253.235 173.067 253.022 174.56L251.982 180.8C251.555 183.36 250.302 185.333 248.222 186.72C246.142 188.053 243.342 188.72 239.822 188.72L242.302 175.04C242.462 174.08 242.542 173.2 242.542 172.4C242.542 170.48 242.062 169.067 241.102 168.16C240.195 167.253 238.782 166.8 236.862 166.8H220.862L218.462 180.8C217.982 183.413 216.729 185.387 214.702 186.72C212.675 188.053 209.929 188.72 206.462 188.72L215.582 136.88ZM237.982 157.68C240.915 157.68 243.262 156.693 245.022 154.72C246.835 152.747 247.742 150.16 247.742 146.96C247.742 143.067 245.475 141.12 240.942 141.12H225.422L222.462 157.68H237.982ZM275.386 188.72C272.4 188.72 269.733 188.16 267.386 187.04C265.04 185.92 263.2 184.4 261.866 182.48C260.533 180.507 259.866 178.32 259.866 175.92C259.866 174.96 259.92 174.24 260.026 173.76L261.946 163.12C262.48 160.027 263.706 157.28 265.626 154.88C267.6 152.48 270.053 150.613 272.986 149.28C275.973 147.947 279.226 147.28 282.746 147.28C285.68 147.28 288.266 147.813 290.506 148.88C292.746 149.947 294.48 151.44 295.706 153.36C296.933 155.28 297.546 157.467 297.546 159.92C297.546 160.773 297.466 161.68 297.306 162.64L296.506 167.12C296.24 168.347 295.6 169.36 294.586 170.16C293.626 170.907 292.48 171.28 291.146 171.28H270.186L269.866 173.04C269.76 173.787 269.706 174.32 269.706 174.64C269.706 176.613 270.32 178.133 271.546 179.2C272.773 180.267 274.533 180.8 276.826 180.8C279.333 180.8 281.386 180.24 282.986 179.12C284.586 178 285.546 176.453 285.866 174.48C286.346 174.427 286.986 174.4 287.786 174.4C289.6 174.4 290.986 174.747 291.946 175.44C292.96 176.08 293.466 177.04 293.466 178.32C293.466 180.133 292.64 181.84 290.986 183.44C289.333 185.04 287.12 186.32 284.346 187.28C281.573 188.24 278.586 188.72 275.386 188.72ZM287.946 164.16L288.266 162.64C288.373 162.213 288.426 161.6 288.426 160.8C288.426 158.987 287.813 157.6 286.586 156.64C285.36 155.627 283.6 155.12 281.306 155.12C278.853 155.12 276.746 155.813 274.986 157.2C273.226 158.533 272.133 160.347 271.706 162.64L271.386 164.16H287.946ZM315.086 188.72C312.58 188.72 310.34 188.213 308.366 187.2C306.446 186.133 304.926 184.693 303.806 182.88C302.74 181.067 302.206 179.04 302.206 176.8C302.206 176 302.286 175.173 302.446 174.32L304.686 161.68C305.433 157.36 307.513 153.893 310.926 151.28C314.393 148.613 318.553 147.28 323.406 147.28C325.38 147.28 327.326 147.707 329.246 148.56C331.22 149.36 332.82 150.453 334.046 151.84L334.366 151.44C334.153 151.12 333.673 150.587 332.926 149.84L335.006 138C335.433 135.813 336.606 134.16 338.526 133.04C340.5 131.867 343.113 131.28 346.366 131.28L337.406 181.84C336.98 183.973 335.86 185.653 334.046 186.88C332.233 188.107 329.886 188.72 327.006 188.72L327.726 184.32C328.633 183.413 329.273 182.72 329.646 182.24L329.326 181.92C327.14 184.32 324.926 186.053 322.686 187.12C320.446 188.187 317.913 188.72 315.086 188.72ZM319.646 180.08C321.993 180.08 324.02 179.52 325.726 178.4C327.486 177.227 328.526 175.76 328.846 174L330.926 161.92C330.98 161.707 331.006 161.413 331.006 161.04C331.006 159.547 330.34 158.32 329.006 157.36C327.673 156.4 325.94 155.92 323.806 155.92C321.193 155.92 319.086 156.48 317.486 157.6C315.94 158.667 314.98 160.213 314.606 162.24L312.526 173.6C312.42 174.24 312.366 174.693 312.366 174.96C312.366 178.373 314.793 180.08 319.646 180.08ZM363.121 188.72C360.134 188.72 357.467 188.16 355.121 187.04C352.774 185.92 350.934 184.4 349.601 182.48C348.267 180.507 347.601 178.32 347.601 175.92C347.601 174.96 347.654 174.24 347.761 173.76L349.681 163.12C350.214 160.027 351.441 157.28 353.361 154.88C355.334 152.48 357.787 150.613 360.721 149.28C363.707 147.947 366.961 147.28 370.481 147.28C373.414 147.28 376.001 147.813 378.241 148.88C380.481 149.947 382.214 151.44 383.441 153.36C384.667 155.28 385.281 157.467 385.281 159.92C385.281 160.773 385.201 161.68 385.041 162.64L384.241 167.12C383.974 168.347 383.334 169.36 382.321 170.16C381.361 170.907 380.214 171.28 378.881 171.28H357.921L357.601 173.04C357.494 173.787 357.441 174.32 357.441 174.64C357.441 176.613 358.054 178.133 359.281 179.2C360.507 180.267 362.267 180.8 364.561 180.8C367.067 180.8 369.121 180.24 370.721 179.12C372.321 178 373.281 176.453 373.601 174.48C374.081 174.427 374.721 174.4 375.521 174.4C377.334 174.4 378.721 174.747 379.681 175.44C380.694 176.08 381.201 177.04 381.201 178.32C381.201 180.133 380.374 181.84 378.721 183.44C377.067 185.04 374.854 186.32 372.081 187.28C369.307 188.24 366.321 188.72 363.121 188.72ZM375.681 164.16L376.001 162.64C376.107 162.213 376.161 161.6 376.161 160.8C376.161 158.987 375.547 157.6 374.321 156.64C373.094 155.627 371.334 155.12 369.041 155.12C366.587 155.12 364.481 155.813 362.721 157.2C360.961 158.533 359.867 160.347 359.441 162.64L359.121 164.16H375.681ZM417.926 136.88C418.139 135.493 418.832 134.347 420.006 133.44C421.232 132.48 422.619 132 424.166 132H446.166C449.312 132 452.139 132.64 454.646 133.92C457.206 135.2 459.206 136.96 460.646 139.2C462.086 141.387 462.806 143.867 462.806 146.64C462.806 153.68 460.806 159.173 456.806 163.12C452.859 167.067 447.339 169.04 440.246 169.04H422.966L420.886 180.8C420.459 183.36 419.206 185.333 417.126 186.72C415.046 188.053 412.272 188.72 408.806 188.72L417.926 136.88ZM441.286 159.76C448.432 159.76 452.006 155.893 452.006 148.16C452.006 145.92 451.366 144.213 450.086 143.04C448.859 141.867 447.019 141.28 444.566 141.28H427.846L424.566 159.76H441.286ZM487.237 155.92C484.09 155.92 481.37 156.747 479.077 158.4C476.784 160.053 475.424 162.16 474.997 164.72L471.877 182.64C471.45 184.773 470.357 186.32 468.597 187.28C466.89 188.24 464.304 188.72 460.837 188.72L466.757 154.96C467.184 152.453 468.304 150.56 470.117 149.28C471.984 147.947 474.49 147.28 477.637 147.28L476.837 152C475.45 153.493 474.65 154.373 474.437 154.64L474.837 154.96C479.264 149.84 483.93 147.28 488.837 147.28C490.704 147.28 492.144 147.733 493.157 148.64C494.224 149.493 494.757 150.693 494.757 152.24C494.757 153.093 494.597 153.947 494.277 154.8C493.957 155.653 493.53 156.427 492.997 157.12C491.717 156.32 489.797 155.92 487.237 155.92ZM507.977 143.52C506.324 143.52 504.964 143.067 503.897 142.16C502.83 141.2 502.297 139.973 502.297 138.48C502.297 136.507 503.07 134.827 504.617 133.44C506.164 132 508.004 131.28 510.137 131.28C511.79 131.28 513.124 131.733 514.137 132.64C515.204 133.547 515.737 134.747 515.737 136.24C515.737 138.213 514.964 139.92 513.417 141.36C511.87 142.8 510.057 143.52 507.977 143.52ZM501.177 153.36C501.55 151.28 502.617 149.76 504.377 148.8C506.19 147.787 508.804 147.28 512.217 147.28L505.977 182.64C505.604 184.773 504.537 186.32 502.777 187.28C501.017 188.24 498.404 188.72 494.937 188.72L501.177 153.36ZM532.04 188.72C530.76 188.72 529.693 188.427 528.84 187.84C528.04 187.253 527.533 186.453 527.32 185.44L519.48 148.08C519.853 147.867 520.467 147.68 521.32 147.52C522.173 147.36 522.947 147.28 523.64 147.28C525.293 147.28 526.653 147.627 527.72 148.32C528.84 148.96 529.507 149.867 529.72 151.04L533.48 176L531.56 179.76L532.2 179.92L547.16 151.04C547.747 149.867 548.707 148.96 550.04 148.32C551.373 147.627 552.867 147.28 554.52 147.28C555.267 147.28 556.12 147.36 557.08 147.52C558.04 147.68 558.653 147.867 558.92 148.08L537.88 185.44C537.347 186.453 536.547 187.253 535.48 187.84C534.413 188.427 533.267 188.72 532.04 188.72ZM568.334 188.72C564.547 188.72 561.454 187.733 559.054 185.76C556.707 183.733 555.534 181.12 555.534 177.92C555.534 174.827 556.334 172.053 557.934 169.6C559.534 167.147 561.774 165.227 564.654 163.84C567.534 162.453 570.787 161.76 574.414 161.76C576.76 161.76 578.84 162.133 580.654 162.88C582.467 163.627 584.12 164.8 585.614 166.4L586.014 166C585.854 165.787 585.16 165.067 583.934 163.84L584.174 162.24C584.227 161.92 584.254 161.44 584.254 160.8C584.254 158.933 583.614 157.52 582.334 156.56C581.054 155.6 579.187 155.12 576.734 155.12C574.28 155.12 572.014 155.6 569.934 156.56C567.907 157.467 566.2 158.8 564.814 160.56C563.8 160.293 562.974 159.787 562.334 159.04C561.694 158.293 561.374 157.493 561.374 156.64C561.374 154.933 562.147 153.36 563.694 151.92C565.294 150.48 567.427 149.36 570.094 148.56C572.814 147.707 575.774 147.28 578.974 147.28C583.774 147.28 587.534 148.347 590.254 150.48C592.974 152.613 594.334 155.52 594.334 159.2C594.334 160.107 594.254 161.04 594.094 162L590.574 182C590.147 184.347 589.107 186.053 587.454 187.12C585.8 188.187 583.347 188.72 580.094 188.72L580.654 185.44C581.667 184.64 582.44 183.973 582.974 183.44L582.654 183.04C580.467 185.013 578.227 186.453 575.934 187.36C573.694 188.267 571.16 188.72 568.334 188.72ZM572.254 181.44C575.24 181.44 577.64 180.8 579.454 179.52C581.267 178.187 582.174 176.427 582.174 174.24C582.174 172.587 581.48 171.307 580.094 170.4C578.76 169.493 576.894 169.04 574.494 169.04C571.774 169.04 569.56 169.733 567.854 171.12C566.2 172.507 565.374 174.32 565.374 176.56C565.374 179.813 567.667 181.44 572.254 181.44ZM613.055 188.72C610.548 188.72 608.308 188.213 606.335 187.2C604.415 186.133 602.895 184.693 601.775 182.88C600.708 181.067 600.175 179.04 600.175 176.8C600.175 176 600.255 175.173 600.415 174.32L602.655 161.68C603.402 157.36 605.482 153.893 608.895 151.28C612.362 148.613 616.522 147.28 621.375 147.28C623.348 147.28 625.295 147.707 627.215 148.56C629.188 149.36 630.788 150.453 632.015 151.84L632.335 151.44C632.122 151.12 631.642 150.587 630.895 149.84L632.975 138C633.402 135.813 634.575 134.16 636.495 133.04C638.468 131.867 641.082 131.28 644.335 131.28L635.375 181.84C634.948 183.973 633.828 185.653 632.015 186.88C630.202 188.107 627.855 188.72 624.975 188.72L625.695 184.32C626.602 183.413 627.242 182.72 627.615 182.24L627.295 181.92C625.108 184.32 622.895 186.053 620.655 187.12C618.415 188.187 615.882 188.72 613.055 188.72ZM617.615 180.08C619.962 180.08 621.988 179.52 623.695 178.4C625.455 177.227 626.495 175.76 626.815 174L628.895 161.92C628.948 161.707 628.975 161.413 628.975 161.04C628.975 159.547 628.308 158.32 626.975 157.36C625.642 156.4 623.908 155.92 621.775 155.92C619.162 155.92 617.055 156.48 615.455 157.6C613.908 158.667 612.948 160.213 612.575 162.24L610.495 173.6C610.388 174.24 610.335 174.693 610.335 174.96C610.335 178.373 612.762 180.08 617.615 180.08ZM656.849 188.72C653.063 188.72 649.969 187.733 647.569 185.76C645.223 183.733 644.049 181.12 644.049 177.92C644.049 174.827 644.849 172.053 646.449 169.6C648.049 167.147 650.289 165.227 653.169 163.84C656.049 162.453 659.303 161.76 662.929 161.76C665.276 161.76 667.356 162.133 669.169 162.88C670.983 163.627 672.636 164.8 674.129 166.4L674.529 166C674.369 165.787 673.676 165.067 672.449 163.84L672.689 162.24C672.743 161.92 672.769 161.44 672.769 160.8C672.769 158.933 672.129 157.52 670.849 156.56C669.569 155.6 667.703 155.12 665.249 155.12C662.796 155.12 660.529 155.6 658.449 156.56C656.423 157.467 654.716 158.8 653.329 160.56C652.316 160.293 651.489 159.787 650.849 159.04C650.209 158.293 649.889 157.493 649.889 156.64C649.889 154.933 650.663 153.36 652.209 151.92C653.809 150.48 655.943 149.36 658.609 148.56C661.329 147.707 664.289 147.28 667.489 147.28C672.289 147.28 676.049 148.347 678.769 150.48C681.489 152.613 682.849 155.52 682.849 159.2C682.849 160.107 682.769 161.04 682.609 162L679.089 182C678.663 184.347 677.623 186.053 675.969 187.12C674.316 188.187 671.863 188.72 668.609 188.72L669.169 185.44C670.183 184.64 670.956 183.973 671.489 183.44L671.169 183.04C668.983 185.013 666.743 186.453 664.449 187.36C662.209 188.267 659.676 188.72 656.849 188.72ZM660.769 181.44C663.756 181.44 666.156 180.8 667.969 179.52C669.783 178.187 670.689 176.427 670.689 174.24C670.689 172.587 669.996 171.307 668.609 170.4C667.276 169.493 665.409 169.04 663.009 169.04C660.289 169.04 658.076 169.733 656.369 171.12C654.716 172.507 653.889 174.32 653.889 176.56C653.889 179.813 656.183 181.44 660.769 181.44Z" fill="#373737"/>
</svg>
